# xmcd CD database file generated by Grip 2.94
# 
# Track frame offsets:
#       150
#       13515
#       26607
#       37947
#       50530
#       63387
#       78047
#       91030
#       103977
#       115505
#       128822
#       141377
# 
# Disc length: 2035 seconds
# 
# Revision: 3
# Processed by: cddbd v1.4b41PL1 Copyright (c) Steve Scherf et al.
# Submitted via: Grip 2.94
# 
DISCID=9007f10c
DTITLE=Sonny Terry and Brownie McGhee - Climbin' Up
DYEAR=1900
DGENRE=
TTITLE0=Gone Baby Gone - Brownie McGhee
TTITLE1=Tell Me Baby - Brownie McGhee
TTITLE2=Sittin' Pretty - Brownie McGhee
TTITLE3=Bottom Blues - Brownie McGhee
TTITLE4=Dissatisfied Blues - Brownie McGhee
TTITLE5=Diamond Ring - Brownie McGhee
TTITLE6=The Way I Feel - Brownie McGhee
TTITLE7=So Much Trouble - Brownie McGhee
TTITLE8=When It's Love Time - Brownie McGhee
TTITLE9=I'd Love to Love You - Brownie McGhee
TTITLE10=Love's a Disease - Brownie McGhee
TTITLE11=My Fault - Brownie McGhee
EXTD=
EXTT0=
EXTT1=
EXTT2=
EXTT3=
EXTT4=
EXTT5=
EXTT6=
EXTT7=
EXTT8=
EXTT9=
EXTT10=
EXTT11=
PLAYORDER=
